<?xml version="1.0" encoding="utf-8"?>
<!-- Generator: Adobe Illustrator 24.0.0, SVG Export Plug-In . SVG Version: 6.00 Build 0)  -->
<svg version="1.1" xmlns="http://www.w3.org/2000/svg" xmlns:xlink="http://www.w3.org/1999/xlink" x="0px" y="0px"
	 viewBox="0 0 480.1 48" style="enable-background:new 0 0 480.1 48;" xml:space="preserve">
<g id="dev">
	<path d="M341.2,1.2h17.1c7,0,12.4,1.9,16.4,5.7c3.9,3.8,5.9,9.4,5.9,16.9c0,3.8-0.5,7.1-1.6,10c-1.1,2.9-2.7,5.3-4.7,7.2
		c-2,2-4.5,3.4-7.5,4.4c-2.9,1-6.3,1.5-10,1.5h-15.5V1.2z M356.9,38.7c2.5,0,4.6-0.4,6.3-1.1c1.7-0.7,3.2-1.7,4.3-3
		c1.1-1.3,1.9-2.9,2.4-4.7c0.5-1.8,0.8-3.8,0.8-6.1c0-2.2-0.2-4.2-0.7-6c-0.4-1.8-1.2-3.3-2.1-4.6c-1-1.2-2.3-2.2-3.8-2.9
		c-1.6-0.7-3.5-1-5.7-1h-7.6v29.4H356.9z"/>
	<path d="M394.7,1.2h31.2v8.1h-21.6v10h20.4v8.2h-20.4v11.3h23l-1,8.1h-31.6V1.2z"/>
	<path d="M436.7,1.2h10.6l11.1,32.3l11.4-32.3h10.2l-17.2,45.7h-9L436.7,1.2z"/>
</g>
<g id="to">
	<path d="M230.4,9.4h-13.8V1.2h37.1v8.3H240v37.4h-9.6V9.4z"/>
	<path d="M284.5,48c-3.4,0-6.5-0.6-9.2-1.7c-2.7-1.1-5-2.7-6.8-4.8c-1.9-2.1-3.3-4.6-4.3-7.6c-1-2.9-1.5-6.3-1.5-10s0.5-7,1.5-10
		c1-2.9,2.5-5.5,4.4-7.6c1.9-2.1,4.2-3.7,6.9-4.8c2.7-1.1,5.7-1.7,9.1-1.7c3.4,0,6.5,0.6,9.2,1.7c2.7,1.1,5,2.7,6.8,4.8
		c1.9,2.1,3.3,4.6,4.3,7.6c1,2.9,1.5,6.3,1.5,10s-0.5,7-1.4,10c-1,2.9-2.4,5.5-4.2,7.6c-1.9,2.1-4.1,3.7-6.8,4.8
		C291.1,47.4,288,48,284.5,48z M284.5,39.8c4,0,7-1.4,9-4.1c2-2.7,2.9-6.6,2.9-11.7c0-5-1-8.9-2.9-11.7c-2-2.8-4.9-4.1-9-4.1
		c-4,0-7,1.4-9,4.1c-2,2.8-2.9,6.6-2.9,11.7c0,5.1,1,9,2.9,11.7C277.5,38.4,280.5,39.8,284.5,39.8z"/>
</g>
<g id="push">
	<path d="M0,1.2h16.3c3.5,0,6.4,0.4,8.7,1.2c2.3,0.8,4.1,1.8,5.4,3.1c1.3,1.3,2.3,2.8,2.8,4.5c0.5,1.7,0.8,3.5,0.8,5.4
		c0,2-0.3,3.9-0.8,5.8c-0.5,1.8-1.5,3.4-2.8,4.8c-1.3,1.4-3.1,2.5-5.4,3.3c-2.2,0.8-5.1,1.2-8.5,1.2H9.4v16.3H0V1.2z M16.3,22.6
		c1.7,0,3-0.2,4.1-0.5c1.1-0.3,2-0.8,2.6-1.4c0.6-0.6,1.1-1.3,1.3-2.2c0.2-0.9,0.4-1.8,0.4-2.8c0-1.1-0.1-2-0.4-2.8
		c-0.3-0.8-0.7-1.5-1.3-2c-0.6-0.6-1.5-1-2.6-1.3C19.2,9.2,17.9,9,16.2,9H9.4v13.6H16.3z"/>
	<path d="M46.5,1.2H56v27.2c0,3.9,0.7,6.8,2,8.6c1.4,1.9,3.6,2.8,6.8,2.8s5.5-0.9,6.8-2.8c1.3-1.9,2-4.8,2-8.6V1.2h9.5v27.2
		c0,3.5-0.4,6.4-1.3,8.9c-0.9,2.5-2.1,4.5-3.6,6.1c-1.6,1.6-3.5,2.8-5.8,3.5c-2.3,0.7-4.9,1.1-7.7,1.1c-2.9,0-5.5-0.4-7.8-1.2
		c-2.3-0.8-4.2-2-5.8-3.6c-1.6-1.6-2.8-3.7-3.6-6.2c-0.8-2.5-1.2-5.5-1.2-9V1.2z"/>
	<path d="M105.5,31.9c0.2,2.8,1.1,4.9,2.7,6.1c1.6,1.3,4,1.9,7.1,1.9c1.5,0,2.8-0.2,3.8-0.5c1-0.3,1.9-0.7,2.5-1.3
		c0.6-0.5,1.1-1.2,1.4-1.9c0.3-0.7,0.4-1.5,0.4-2.4c0-1.2-0.4-2.3-1.3-3.4c-0.9-1-2.5-1.8-4.9-2.3l-6-1.1c-2.3-0.4-4.4-1-6.2-1.7
		c-1.8-0.7-3.3-1.6-4.5-2.7c-1.2-1.1-2.1-2.4-2.8-4c-0.6-1.6-1-3.5-1-5.6c0-2.2,0.4-4.1,1.3-5.8c0.9-1.7,2.1-3.1,3.6-4.2
		c1.6-1.1,3.4-2,5.6-2.5c2.2-0.6,4.6-0.9,7.2-0.9c3.3,0,6.1,0.4,8.3,1.2c2.2,0.8,4,1.8,5.4,3c1.4,1.3,2.4,2.7,3,4.4
		c0.7,1.7,1.1,3.4,1.3,5.2l-9,1.2c-0.5-2.5-1.4-4.3-2.7-5.4c-1.3-1.1-3.4-1.7-6.1-1.7c-1.6,0-3,0.1-4,0.4c-1,0.3-1.9,0.6-2.5,1.1
		c-0.6,0.4-1.1,1-1.3,1.6c-0.3,0.6-0.4,1.2-0.4,1.9c0,1.7,0.5,3,1.4,3.8c1,0.9,2.6,1.5,4.9,2l6.3,1.2c4.9,1,8.6,2.6,10.9,4.8
		c2.3,2.2,3.5,5.4,3.5,9.5c0,2-0.4,3.9-1.1,5.5c-0.7,1.7-1.9,3.2-3.3,4.4c-1.5,1.3-3.3,2.2-5.5,2.9c-2.2,0.7-4.8,1.1-7.8,1.1
		c-6.2,0-11-1.3-14.3-4c-3.3-2.7-5.1-6.7-5.3-12.1H105.5z"/>
	<path d="M146.4,1.2h9.5v17.7h18.1V1.2h9.5v45.7h-9.5V27.6H156v19.2h-9.5V1.2z"/>
</g>
</svg>
